<?xml version="1.0" encoding="iso-8859-1"?>
<!-- Uploaded to: SVG Repo, www.svgrepo.com, Generator: SVG Repo Mixer Tools -->
<svg version="1.1" id="Layer_1" xmlns="http://www.w3.org/2000/svg" xmlns:xlink="http://www.w3.org/1999/xlink" 
	 viewBox="0 0 512 512" xml:space="preserve">
<path style="fill:#E4EAF8;" d="M486.881,465.503H25.119c-9.446,0-17.102-7.656-17.102-17.102V63.599
	c0-9.446,7.656-17.102,17.102-17.102h461.762c9.446,0,17.102,7.656,17.102,17.102v384.802
	C503.983,457.847,496.327,465.503,486.881,465.503z"/>
<path style="fill:#D5DCED;" d="M503.983,89.253H50.772V46.497h436.109c9.446,0,17.102,7.656,17.102,17.102V89.253z"/>
<g>
	<path style="fill:#FFFFFF;" d="M461.228,260.276H50.772c-4.722,0-8.551-3.829-8.551-8.551V132.008c0-4.722,3.829-8.551,8.551-8.551
		h410.455c4.722,0,8.551,3.829,8.551,8.551v119.716C469.779,256.447,465.95,260.276,461.228,260.276z"/>
	<path style="fill:#FFFFFF;" d="M461.228,431.299H50.772c-4.722,0-8.551-3.829-8.551-8.551V303.031c0-4.722,3.829-8.551,8.551-8.551
		h410.455c4.722,0,8.551,3.829,8.551,8.551v119.716C469.779,427.47,465.95,431.299,461.228,431.299z"/>
</g>
<path style="fill:#00C3FF;" d="M170.489,260.276H50.772c-4.722,0-8.551-3.829-8.551-8.551V132.008c0-4.722,3.829-8.551,8.551-8.551
	h119.716V260.276z"/>
<path style="fill:#7DF5A5;" d="M170.489,431.299H50.772c-4.722,0-8.551-3.829-8.551-8.551V303.031c0-4.722,3.829-8.551,8.551-8.551
	h119.716V431.299z"/>
<rect x="375.716" y="46.497" style="fill:#FF5050;" width="42.756" height="42.756"/>
<rect x="418.472" y="46.497" style="fill:#FFF082;" width="42.756" height="42.756"/>
<path style="fill:#A0FFB4;" d="M503.983,89.253h-42.756V46.497h25.653c9.446,0,17.102,7.656,17.102,17.102V89.253z"/>
<path d="M486.881,38.48H25.119C11.268,38.48,0,49.748,0,63.599v384.802c0,13.851,11.268,25.119,25.119,25.119h461.762
	c13.851,0,25.119-11.268,25.119-25.119V63.599C512,49.748,500.732,38.48,486.881,38.48z M495.967,63.599v17.637h-26.722V54.514
	h17.637C491.891,54.514,495.967,58.589,495.967,63.599z M426.489,81.236V54.514h26.722v26.722H426.489z M383.733,81.236V54.514
	h26.722v26.722H383.733z M58.789,81.236V54.514h308.91v26.722H58.789z M25.119,54.514h17.637v26.722H16.033V63.599
	C16.033,58.589,20.109,54.514,25.119,54.514z M486.881,457.486H25.119c-5.01,0-9.086-4.076-9.086-9.086V97.269h479.933v351.132
	C495.967,453.411,491.891,457.486,486.881,457.486z"/>
<path d="M461.228,115.441H50.772c-9.136,0-16.568,7.432-16.568,16.568v119.716c0,9.136,7.432,16.568,16.568,16.568h410.455
	c9.136,0,16.568-7.432,16.568-16.568V132.008C477.795,122.873,470.363,115.441,461.228,115.441z M50.238,251.724V132.008
	c0-0.295,0.239-0.534,0.534-0.534h111.699v120.785H50.772C50.477,252.259,50.238,252.019,50.238,251.724z M461.762,251.724
	c0,0.295-0.239,0.534-0.534,0.534H178.505V131.474h282.722c0.295,0,0.534,0.239,0.534,0.534V251.724z"/>
<path d="M461.228,286.463H50.772c-9.136,0-16.568,7.432-16.568,16.568v119.716c0,9.136,7.432,16.568,16.568,16.568h410.455
	c9.136,0,16.568-7.432,16.568-16.568V303.031C477.795,293.895,470.363,286.463,461.228,286.463z M50.238,422.747V303.031
	c0-0.295,0.239-0.534,0.534-0.534h111.699v120.785H50.772C50.477,423.282,50.238,423.042,50.238,422.747z M461.762,422.747
	c0,0.295-0.239,0.534-0.534,0.534H178.505V302.497h282.722c0.295,0,0.534,0.239,0.534,0.534V422.747z"/>
<path d="M136.284,158.196h-21.912v-0.534c0-4.427-3.589-8.017-8.017-8.017c-4.427,0-8.017,3.589-8.017,8.017v0.534H76.426
	c-4.427,0-8.017,3.589-8.017,8.017s3.589,8.017,8.017,8.017h35.375c-0.781,4.921-2.347,11.576-5.446,18.443
	c-0.532-1.184-1.045-2.389-1.52-3.636c-1.576-4.138-6.207-6.213-10.345-4.64c-4.138,1.576-6.215,6.207-4.64,10.345
	c1.797,4.719,3.975,9.12,6.49,13.194c-3.924,4.211-8.782,8.004-14.832,10.908c-3.991,1.915-5.674,6.704-3.758,10.696
	c1.379,2.873,4.246,4.549,7.233,4.549c1.163,0,2.344-0.254,3.463-0.792c7.204-3.458,13.111-7.806,17.963-12.616
	c5.192,5.158,11.169,9.407,17.854,12.616c1.119,0.537,2.3,0.792,3.463,0.792c2.986,0,5.854-1.677,7.233-4.549
	c1.915-3.991,0.233-8.78-3.758-10.696c-5.656-2.714-10.585-6.339-14.786-10.82c7.702-12.508,10.547-25.642,11.595-33.794h8.273
	c4.427,0,8.017-3.589,8.017-8.017S140.711,158.196,136.284,158.196z"/>
<path d="M144.061,395.15l-15.483-61.933c-1.848-7.388-8.457-12.549-16.073-12.549h-12.301c-7.616,0-14.226,5.161-16.073,12.55
	L68.649,395.15c-1.074,4.296,1.537,8.647,5.833,9.722c4.292,1.076,8.648-1.537,9.722-5.833l2.757-11.03h38.789l2.758,11.03
	c0.911,3.643,4.179,6.075,7.771,6.075c0.643,0,1.298-0.078,1.951-0.242C142.523,403.797,145.135,399.446,144.061,395.15z
	 M90.968,371.975l8.717-34.868c0.06-0.239,0.273-0.405,0.518-0.405h12.301c0.246,0,0.46,0.167,0.518,0.404l8.719,34.869H90.968z"/>
<path d="M213.244,174.23h85.511c4.427,0,8.017-3.589,8.017-8.017s-3.589-8.017-8.017-8.017h-85.511
	c-4.427,0-8.017,3.589-8.017,8.017S208.817,174.23,213.244,174.23z"/>
<path d="M367.165,192.401H213.244c-4.427,0-8.017,3.589-8.017,8.017s3.589,8.017,8.017,8.017h153.921
	c4.427,0,8.017-3.589,8.017-8.017S371.592,192.401,367.165,192.401z"/>
<path d="M401.37,158.196H332.96c-4.427,0-8.017,3.589-8.017,8.017s3.589,8.017,8.017,8.017h68.409c4.427,0,8.017-3.589,8.017-8.017
	S405.797,158.196,401.37,158.196z"/>
<path d="M213.244,345.253h68.409c4.427,0,8.017-3.589,8.017-8.017c0-4.427-3.589-8.017-8.017-8.017h-68.409
	c-4.427,0-8.017,3.589-8.017,8.017C205.228,341.663,208.817,345.253,213.244,345.253z"/>
<path d="M332.96,363.424H213.244c-4.427,0-8.017,3.589-8.017,8.017c0,4.427,3.589,8.017,8.017,8.017H332.96
	c4.427,0,8.017-3.589,8.017-8.017C340.977,367.013,337.388,363.424,332.96,363.424z"/>
<path d="M384.267,329.219h-68.409c-4.427,0-8.017,3.589-8.017,8.017c0,4.427,3.589,8.017,8.017,8.017h68.409
	c4.427,0,8.017-3.589,8.017-8.017C392.284,332.809,388.695,329.219,384.267,329.219z"/>
</svg>